<svg id="Layer_1" data-name="Layer 1" xmlns="http://www.w3.org/2000/svg" xmlns:xlink="http://www.w3.org/1999/xlink" viewBox="0 0 457.89 188.98"><defs><style>.cls-1{fill:#fff;}.cls-2{fill:#e6007e;}.cls-3{fill:url(#linear-gradient);}.cls-4{fill:#009fe3;}.cls-5{fill:#ffed00;}</style><linearGradient id="linear-gradient" x1="19.55" y1="166.59" x2="91.62" y2="166.59" gradientUnits="userSpaceOnUse"><stop offset="0" stop-color="#d5d6dd"/><stop offset="0.33" stop-color="#d5d6dd"/><stop offset="1" stop-color="#616160"/></linearGradient></defs><path class="cls-1" d="M60.15,189l-3.44,14.3h-1.8L58.3,189Z" transform="translate(-19.55 -18.69)"/><path class="cls-1" d="M80.94,189,77.5,203.3H75.7l3.13-13.09h0L69.55,203.3h-1.8l-3-13.09h0L61.59,203.3H59.74L63.2,189h3.13l2.77,12.27L77.74,189Z" transform="translate(-19.55 -18.69)"/><path class="cls-1" d="M95,191.49a9.18,9.18,0,0,1-.49,2.92,4.83,4.83,0,0,1-4.92,3.34H83.42l-1.33,5.55H80.28L83.67,189H91.9c1.54,0,2.5.45,2.87,1.37A2.91,2.91,0,0,1,95,191.49Zm-1.89.27a2.35,2.35,0,0,0,0-.61c-.21-.49-1-.74-2.22-.74H85.18l-1.42,5.89h5.15a4.87,4.87,0,0,0,2.73-.53C92.59,195,93.06,193.69,93.06,191.76Z" transform="translate(-19.55 -18.69)"/><path class="cls-1" d="M109.75,191.61a6.54,6.54,0,0,1-.23,1.64,6.22,6.22,0,0,1-1.27,2.67,4.05,4.05,0,0,1-2.43,1v0c1.37.14,2.06.71,2.06,1.72a4.31,4.31,0,0,1-.08.85l-.89,3.8h-1.84l.75-3.13a4.31,4.31,0,0,0,.13-1c0-1-.77-1.52-2.32-1.52H97.85l-1.35,5.7H94.65L98.07,189h7.53a10.55,10.55,0,0,1,2.32.23A2.17,2.17,0,0,1,109.75,191.61Zm-1.82.17a1,1,0,0,0-.74-1.08,5.88,5.88,0,0,0-2-.29H99.57l-1.36,5.74h5.5a10.22,10.22,0,0,0,1.73-.16,2.44,2.44,0,0,0,1.13-.51,2.76,2.76,0,0,0,.82-1.25,10.7,10.7,0,0,0,.36-1.32A5.18,5.18,0,0,0,107.93,191.78Z" transform="translate(-19.55 -18.69)"/><path class="cls-1" d="M122.89,189l-.34,1.41H114l-1.15,4.88h8.19l-.34,1.33h-8.19l-1.24,5.27h8.54l-.34,1.41H109.12l3.4-14.3Z" transform="translate(-19.55 -18.69)"/><path class="cls-1" d="M135.57,191.3a7.08,7.08,0,0,1-.26,1.61h-1.84c0-.1,0-.32.1-.65a5,5,0,0,0,.07-.65,1.06,1.06,0,0,0-.17-.7,1.39,1.39,0,0,0-1-.5,14.72,14.72,0,0,0-2.36-.11c-.86,0-1.62,0-2.27.11a3.19,3.19,0,0,0-1.33.42,2.33,2.33,0,0,0-1.08,1.77,9.9,9.9,0,0,0-.15,1.16,1.42,1.42,0,0,0,1.06,1.35,8.4,8.4,0,0,0,2,.15c.54,0,1,0,1.25,0,.55,0,1.36.08,2.44.16a3.38,3.38,0,0,1,1.67.55,2,2,0,0,1,.67,1.63,7.91,7.91,0,0,1-.59,3,3.92,3.92,0,0,1-1.8,2.14,5.5,5.5,0,0,1-2.07.55,28,28,0,0,1-2.87.12h-.69c-2,0-3.33-.28-4-.83a2.14,2.14,0,0,1-.65-1.56,10.57,10.57,0,0,1,.43-2.19h1.81c-.1.41-.22,1-.35,1.85a1.23,1.23,0,0,0,1.07,1.18A6.93,6.93,0,0,0,126,202l.89,0h1.07a16.44,16.44,0,0,0,1.91-.12,2.44,2.44,0,0,0,2.23-1.73,6.08,6.08,0,0,0,.33-2,1.37,1.37,0,0,0-.21-.84,2,2,0,0,0-1.28-.48c-.1,0-.58-.05-1.45-.09l-1.51-.06a15.56,15.56,0,0,1-3.06-.36,2.24,2.24,0,0,1-.93-.44,2.18,2.18,0,0,1-.62-1.6,6.9,6.9,0,0,1,1.22-3.7,3.64,3.64,0,0,1,1-.88,5.92,5.92,0,0,1,2.39-.72,23.06,23.06,0,0,1,2.57-.1,19.52,19.52,0,0,1,2.84.16,3.09,3.09,0,0,1,1.61.62A2.1,2.1,0,0,1,135.57,191.3Z" transform="translate(-19.55 -18.69)"/><path class="cls-1" d="M149.08,191.3a6.56,6.56,0,0,1-.26,1.61H147c0-.1,0-.32.1-.65a3.7,3.7,0,0,0,.07-.65,1.06,1.06,0,0,0-.17-.7,1.39,1.39,0,0,0-1-.5,14.72,14.72,0,0,0-2.36-.11c-.86,0-1.62,0-2.27.11a3.19,3.19,0,0,0-1.33.42,2.33,2.33,0,0,0-1.08,1.77,9.9,9.9,0,0,0-.15,1.16,1.42,1.42,0,0,0,1.06,1.35,8.4,8.4,0,0,0,2,.15c.55,0,1,0,1.25,0,.55,0,1.36.08,2.44.16a3.38,3.38,0,0,1,1.67.55,2,2,0,0,1,.67,1.63,7.91,7.91,0,0,1-.59,3,3.92,3.92,0,0,1-1.8,2.14,5.5,5.5,0,0,1-2.07.55,28,28,0,0,1-2.87.12h-.69c-2,0-3.33-.28-4-.83a2.14,2.14,0,0,1-.65-1.56,10.57,10.57,0,0,1,.43-2.19h1.81c-.1.41-.22,1-.34,1.85a1.21,1.21,0,0,0,1.06,1.18,6.93,6.93,0,0,0,1.33.11l.89,0h1.07a16.31,16.31,0,0,0,1.91-.12,2.44,2.44,0,0,0,2.23-1.73,6.08,6.08,0,0,0,.33-2,1.37,1.37,0,0,0-.21-.84,2,2,0,0,0-1.28-.48c-.1,0-.58-.05-1.45-.09l-1.51-.06a15.56,15.56,0,0,1-3.06-.36,2.24,2.24,0,0,1-.93-.44,2.18,2.18,0,0,1-.62-1.6,7,7,0,0,1,1.22-3.7,3.64,3.64,0,0,1,1-.88,6,6,0,0,1,2.39-.72,23.06,23.06,0,0,1,2.57-.1,19.52,19.52,0,0,1,2.84.16,3.09,3.09,0,0,1,1.61.62A2.1,2.1,0,0,1,149.08,191.3Z" transform="translate(-19.55 -18.69)"/><path class="cls-1" d="M154.11,189l-3.44,14.3h-1.8l3.39-14.3Z" transform="translate(-19.55 -18.69)"/><path class="cls-1" d="M168.31,191.69A9.74,9.74,0,0,1,168,194l-1.15,4.92a6.26,6.26,0,0,1-1.62,3.13,4.14,4.14,0,0,1-2.08,1.11,13.3,13.3,0,0,1-2.9.27h-1.5a15.87,15.87,0,0,1-2.35-.13,3,3,0,0,1-2-1,3.24,3.24,0,0,1-.52-1.75,11.48,11.48,0,0,1,.26-1.7l1.2-5a7.21,7.21,0,0,1,1.7-3.55,4.32,4.32,0,0,1,1.64-.93,14.86,14.86,0,0,1,4.18-.44h.56a9.88,9.88,0,0,1,3.51.45,1.9,1.9,0,0,1,1,.88C168.21,190.39,168.31,190.88,168.31,191.69Zm-1.81.32c0-1-.54-1.52-1.63-1.64-.46-.05-1.24-.07-2.34-.07h-.92a9.32,9.32,0,0,0-1.84.13,2.72,2.72,0,0,0-1.53.83,4.45,4.45,0,0,0-.78,1.61c-.06.18-.14.45-.24.82l-1.2,5.07a12.86,12.86,0,0,0-.26,1.53,2.79,2.79,0,0,0,.22.85,1.16,1.16,0,0,0,.88.68,8.77,8.77,0,0,0,1.84.18h1.1a6.83,6.83,0,0,1,.79,0,12.61,12.61,0,0,0,1.71-.13,3.26,3.26,0,0,0,1.52-.65,3.91,3.91,0,0,0,1.14-2.17l1.29-5.52c.09-.39.16-.72.2-1A3,3,0,0,0,166.5,192Z" transform="translate(-19.55 -18.69)"/><path class="cls-1" d="M185.48,189,182,203.3h-3l-6-13h0l-3.12,13h-1.85l3.46-14.3h3l5.93,13.08h0L183.63,189Z" transform="translate(-19.55 -18.69)"/><path class="cls-1" d="M209.73,189l-3.44,14.3h-3l-6-13h0l-3.11,13h-1.85l3.46-14.3h3l5.93,13.08h0L207.88,189Z" transform="translate(-19.55 -18.69)"/><path class="cls-1" d="M225.45,189l-2.21,9.42c-.17.7-.31,1.22-.42,1.55a6,6,0,0,1-.7,1.46,3.78,3.78,0,0,1-1.16,1.09,7.26,7.26,0,0,1-3.37.85c-.58,0-1.29,0-2.13,0a9.78,9.78,0,0,1-4.36-.64,2.3,2.3,0,0,1-1-2.09,15.15,15.15,0,0,1,.38-2.12l2.26-9.57h1.85l-2.3,9.65c0,.13-.09.41-.2.84a7.52,7.52,0,0,0-.19,1,1.51,1.51,0,0,0,1.32,1.33,14.46,14.46,0,0,0,2.38.19,2.64,2.64,0,0,1,.47,0,2.58,2.58,0,0,1,.45,0c.94,0,1.56-.06,1.86-.1a3.57,3.57,0,0,0,1.71-.55,2.68,2.68,0,0,0,.85-1.14,13.28,13.28,0,0,0,.5-1.68l2.26-9.57Z" transform="translate(-19.55 -18.69)"/><path class="cls-1" d="M246.23,189l-3.44,14.3H241l3.14-13.09h0l-9.24,13.09H233l-3-13.09h0l-3.16,13.08H225l3.45-14.3h3.13l2.78,12.27L243,189Z" transform="translate(-19.55 -18.69)"/><path class="cls-1" d="M258.94,189l-.34,1.41h-8.55l-1.14,4.88h8.19l-.34,1.33h-8.19l-1.24,5.27h8.55l-.35,1.41H245.18l3.39-14.3Zm-2.45-3.13-3.88,1.88-.39-.78,3.74-2.15Z" transform="translate(-19.55 -18.69)"/><path class="cls-1" d="M272.91,191.61a6.14,6.14,0,0,1-.24,1.64,6,6,0,0,1-1.27,2.67,4,4,0,0,1-2.42,1v0c1.37.14,2.06.71,2.06,1.72a4.31,4.31,0,0,1-.08.85l-.89,3.8h-1.84l.75-3.13a4.31,4.31,0,0,0,.13-1c0-1-.77-1.52-2.32-1.52H261l-1.35,5.7h-1.84l3.41-14.3h7.54a10.55,10.55,0,0,1,2.32.23A2.17,2.17,0,0,1,272.91,191.61Zm-1.83.17a1,1,0,0,0-.73-1.08,5.88,5.88,0,0,0-2-.29h-5.67l-1.36,5.74h5.5a10.22,10.22,0,0,0,1.73-.16,2.49,2.49,0,0,0,1.13-.51,2.84,2.84,0,0,0,.82-1.25q.13-.39.36-1.32A5,5,0,0,0,271.08,191.78Z" transform="translate(-19.55 -18.69)"/><path class="cls-1" d="M278.19,189l-3.43,14.3H273l3.39-14.3Z" transform="translate(-19.55 -18.69)"/><path class="cls-1" d="M293.62,191.9a8.66,8.66,0,0,1-.26,1.94l-.93,3.91c-.05.21-.13.51-.23.9a9.92,9.92,0,0,1-.51,1.48,5.24,5.24,0,0,1-.35.63l1.18.79-1,1.12-1-.74a6.08,6.08,0,0,1-3.5,1.39,23.36,23.36,0,0,1-2.41.1h-1.09c-2.34,0-3.83-.34-4.49-1a2.73,2.73,0,0,1-.67-1.92,7.16,7.16,0,0,1,.21-1.64c0-.19.24-1.08.63-2.69.11-.47.25-1.1.43-1.92a9.61,9.61,0,0,1,1.05-2.85,4.73,4.73,0,0,1,2.73-2.06,16.23,16.23,0,0,1,4.42-.44,14.65,14.65,0,0,1,4.15.39A2.5,2.5,0,0,1,293.62,191.9Zm-1.81.22a1.59,1.59,0,0,0-1.27-1.57,8.33,8.33,0,0,0-2.38-.25H285.8a4.32,4.32,0,0,0-3.14,1,4.71,4.71,0,0,0-1.13,2.09c-.1.39-.19.78-.26,1.17l-.24,1.32c-.19.66-.44,1.65-.76,3a8,8,0,0,0-.12,1.36,1.79,1.79,0,0,0,.32,1.18,2.46,2.46,0,0,0,1.81.61c.5,0,1.26,0,2.27,0h1.77a4.09,4.09,0,0,0,2.9-.89l-4.35-2.92,1.1-1.11,4,2.71a2.66,2.66,0,0,0,.31-.78c.06-.2.1-.35.14-.44l1.22-5.24A6,6,0,0,0,291.81,192.12Z" transform="translate(-19.55 -18.69)"/><path class="cls-1" d="M309.84,189l-2.22,9.42c-.16.7-.3,1.22-.41,1.55a6,6,0,0,1-.7,1.46,3.78,3.78,0,0,1-1.16,1.09,7.3,7.3,0,0,1-3.37.85c-.58,0-1.29,0-2.13,0a9.78,9.78,0,0,1-4.36-.64,2.32,2.32,0,0,1-1.06-2.09,14.11,14.11,0,0,1,.39-2.12l2.26-9.57h1.85l-2.3,9.65c0,.13-.1.41-.2.84a6.24,6.24,0,0,0-.19,1,1.51,1.51,0,0,0,1.32,1.33,14.35,14.35,0,0,0,2.38.19,2.64,2.64,0,0,1,.47,0,2.68,2.68,0,0,1,.45,0c.93,0,1.56-.06,1.86-.1a3.61,3.61,0,0,0,1.71-.55,2.74,2.74,0,0,0,.84-1.14,11.63,11.63,0,0,0,.51-1.68L308,189Z" transform="translate(-19.55 -18.69)"/><path class="cls-1" d="M322.6,189l-.34,1.41h-8.55l-1.14,4.88h8.18l-.34,1.33h-8.18L311,201.89h8.55l-.34,1.41H308.83l3.4-14.3Z" transform="translate(-19.55 -18.69)"/><path class="cls-1" d="M334.48,197.37l-.37,1.43h-5.58l.32-1.43Z" transform="translate(-19.55 -18.69)"/><path class="cls-1" d="M357.57,192.46a8.9,8.9,0,0,1-.26,2.12l-.7,3a8.38,8.38,0,0,1-1.91,3.88,5.84,5.84,0,0,1-1.79,1.24,6.43,6.43,0,0,1-2.73.55h-8.33l3.43-14.3h7.93q3.42,0,4.19,2.07A4.37,4.37,0,0,1,357.57,192.46Zm-1.8.48a2.68,2.68,0,0,0-.61-1.79,2.51,2.51,0,0,0-2-.74h-6.42L344,201.89h5.88a6.73,6.73,0,0,0,1.92-.23,3.17,3.17,0,0,0,1.39-.75,4.07,4.07,0,0,0,1-1.59c.15-.4.36-1.12.62-2.13l.8-3.12A4.81,4.81,0,0,0,355.77,192.94Z" transform="translate(-19.55 -18.69)"/><path class="cls-1" d="M368.89,195.55a5.87,5.87,0,0,1-.13,1.38l-.17.74-.21,1h-8.12l-.14.59,0,.15a5.36,5.36,0,0,0-.21,1.41,1.27,1.27,0,0,0,.45,1.09,5.83,5.83,0,0,0,2.41.32,5.45,5.45,0,0,0,2.81-.44,2.57,2.57,0,0,0,.71-1.48H368a3.52,3.52,0,0,1-1.46,2.42,5,5,0,0,1-2.3.66c-.43,0-1,0-1.61,0a16,16,0,0,1-2.19-.12,2.84,2.84,0,0,1-1.85-.9,2.8,2.8,0,0,1-.41-1.49,14.61,14.61,0,0,1,.29-1.93l.16-.79c.47-2.05,1.15-3.41,2.07-4.08a7.2,7.2,0,0,1,4.18-.94c1.81,0,3,.25,3.5.75A2.13,2.13,0,0,1,368.89,195.55Zm-1.76.16a1.45,1.45,0,0,0-.17-.82c-.23-.33-.91-.5-2.06-.5h-.33a4.78,4.78,0,0,0-2.85.59,5.39,5.39,0,0,0-1.19,2.42h6.39C367.06,196.4,367.13,195.83,367.13,195.71Z" transform="translate(-19.55 -18.69)"/><path class="cls-1" d="M381.14,195.8a12.76,12.76,0,0,1-.35,2.39,7.42,7.42,0,0,1-2.17,4.33,5.71,5.71,0,0,1-3.56.9c-1.94,0-3-.43-3.26-1.28h0l-1.32,5.53h-1.68l3.44-14.38h1.68l-.3,1.22,0,0q1.14-1.38,4-1.38a3.9,3.9,0,0,1,3,.9A2.54,2.54,0,0,1,381.14,195.8Zm-1.77.2a1.65,1.65,0,0,0-.21-.94c-.33-.44-1.09-.67-2.3-.67a4.34,4.34,0,0,0-2.9.75,3.9,3.9,0,0,0-1,2c-.07.28-.18.7-.31,1.25a18.08,18.08,0,0,0-.32,2.06,4.51,4.51,0,0,0,.15.82c.36.64,1.21,1,2.54,1a3.82,3.82,0,0,0,2.59-.7,4.09,4.09,0,0,0,1-1.85q.06-.22.3-1.2A12,12,0,0,0,379.37,196Z" transform="translate(-19.55 -18.69)"/><path class="cls-1" d="M393.79,193.29l-2.39,10h-1.72L390,202h0a4.87,4.87,0,0,1-3.91,1.42,4.15,4.15,0,0,1-2.73-.67,2.28,2.28,0,0,1-.63-1.61l.14-1.16,1.63-6.69h1.68l-1.55,6.54a11.66,11.66,0,0,0-.22,1.24,1,1,0,0,0,.26.66,1,1,0,0,0,.6.37,3.89,3.89,0,0,0,1.2.11,12.88,12.88,0,0,0,1.9-.17,2.54,2.54,0,0,0,1.24-.61,3.84,3.84,0,0,0,1-2l1.46-6.1Z" transform="translate(-19.55 -18.69)"/><path class="cls-1" d="M398.45,193.29l-2.4,10h-1.73l2.45-10Zm1-4.29-.38,1.67H397.4l.39-1.67Z" transform="translate(-19.55 -18.69)"/><path class="cls-1" d="M409.86,195a5.4,5.4,0,0,1-.17,1h-1.76c.08-.53.13-.75.13-.67a.67.67,0,0,0-.22-.48,5.41,5.41,0,0,0-2.34-.26H405a4.71,4.71,0,0,0-2.1.3,1.19,1.19,0,0,0-.66.75c0,.06-.09.41-.22,1.06a.7.7,0,0,0,.31.63,2.15,2.15,0,0,0,.91.2l2,.07c.83,0,1.39.07,1.69.11a3.34,3.34,0,0,1,1.52.57,1.47,1.47,0,0,1,.57,1.27,3.5,3.5,0,0,1-1.71,3.35,5.18,5.18,0,0,1-2.29.57c-.39,0-.91,0-1.54,0a13.62,13.62,0,0,1-3.05-.24,2.1,2.1,0,0,1-1-.51,1.54,1.54,0,0,1-.47-1c0-.15.07-.44.16-.87l.14-.7H401c-.06.26-.15.65-.26,1.17.07.34.39.55.95.64a13.85,13.85,0,0,0,1.88.15h.83a4.35,4.35,0,0,0,1.86-.32,1.67,1.67,0,0,0,.86-1.26,3.26,3.26,0,0,0,.09-.69c0-.61-.62-.92-1.85-.92h-.53a14.49,14.49,0,0,1-3-.21,1.8,1.8,0,0,1-1.65-1.7,6.68,6.68,0,0,1,.64-2.18,2.64,2.64,0,0,1,1.56-1.28,11.48,11.48,0,0,1,3.56-.37,6.73,6.73,0,0,1,3.31.57A1.34,1.34,0,0,1,409.86,195Z" transform="translate(-19.55 -18.69)"/><path class="cls-1" d="M432.32,191.53a7.94,7.94,0,0,1-1,3.9,4.43,4.43,0,0,1-1.26,1.46,4.23,4.23,0,0,1-1.37.63,9.78,9.78,0,0,1-1.45.29l-1.92.17c-.67.05-1.28.12-1.85.19a3.89,3.89,0,0,0-2,.71,2.43,2.43,0,0,0-.92,1.56l-.32,1.45H430l-.34,1.41H418.05l.6-2.39a8.38,8.38,0,0,1,.79-2.14,3.6,3.6,0,0,1,1-1.1,4.68,4.68,0,0,1,1.34-.63,12.35,12.35,0,0,1,1.63-.31l1.84-.2,2.12-.16a4.22,4.22,0,0,0,1.16-.26A2.17,2.17,0,0,0,429.7,195a8,8,0,0,0,.48-1.48,7.65,7.65,0,0,0,.28-1.76,1.35,1.35,0,0,0-.28-1c-.25-.33-1.24-.49-3-.49a10.61,10.61,0,0,0-3.48.34,1.65,1.65,0,0,0-.88.82,8.89,8.89,0,0,0-.54,1.71l-.17.71h-1.81l.24-1.09a7,7,0,0,1,.57-1.65,3.27,3.27,0,0,1,.73-1,3.35,3.35,0,0,1,1.07-.67,14.05,14.05,0,0,1,4.7-.55,13,13,0,0,1,2.84.25,2.3,2.3,0,0,1,1.47.91A2.68,2.68,0,0,1,432.32,191.53Z" transform="translate(-19.55 -18.69)"/><path class="cls-1" d="M448.08,191.94a9.43,9.43,0,0,1-.28,2.17l-1,4.11q-.85,3.48-2.9,4.49a6.55,6.55,0,0,1-2.17.57,28.59,28.59,0,0,1-3,.14,18.8,18.8,0,0,1-3.41-.24,3.37,3.37,0,0,1-1.83-.85,3.05,3.05,0,0,1-.69-2,14,14,0,0,1,.3-2.14l1-4.15a10.85,10.85,0,0,1,.85-2.36,4.71,4.71,0,0,1,1.32-1.67,6.2,6.2,0,0,1,3.37-1.08c.71-.05,1.61-.08,2.69-.08a16.53,16.53,0,0,1,3.79.32,3.2,3.2,0,0,1,1.11.5A2.69,2.69,0,0,1,448.08,191.94Zm-1.85.15a1.63,1.63,0,0,0-.42-1.24,2.29,2.29,0,0,0-1.34-.48c-.52-.05-1.4-.07-2.64-.07a14.31,14.31,0,0,0-3.74.3,2.76,2.76,0,0,0-1.51,1.4,7.78,7.78,0,0,0-.61,1.76l-1.14,4.77a11.25,11.25,0,0,0-.26,1.68,1.52,1.52,0,0,0,.83,1.45,10.67,10.67,0,0,0,3.51.34c1.29,0,2.26,0,2.93-.11a3.08,3.08,0,0,0,1.58-.54,5.14,5.14,0,0,0,1.53-3L446,194A8.43,8.43,0,0,0,446.23,192.09Z" transform="translate(-19.55 -18.69)"/><path class="cls-1" d="M462.88,191.94a8.92,8.92,0,0,1-.28,2.17l-1,4.11c-.57,2.32-1.53,3.82-2.9,4.49a6.49,6.49,0,0,1-2.17.57,28.59,28.59,0,0,1-3,.14,18.8,18.8,0,0,1-3.41-.24,3.4,3.4,0,0,1-1.83-.85,3,3,0,0,1-.68-2,12.9,12.9,0,0,1,.29-2.14l1-4.15a11.41,11.41,0,0,1,.84-2.36A4.85,4.85,0,0,1,451,190a6.2,6.2,0,0,1,3.37-1.08c.71-.05,1.61-.08,2.69-.08a16.53,16.53,0,0,1,3.79.32,3.2,3.2,0,0,1,1.11.5A2.72,2.72,0,0,1,462.88,191.94Zm-1.84.15a1.63,1.63,0,0,0-.43-1.24,2.26,2.26,0,0,0-1.34-.48c-.52-.05-1.4-.07-2.64-.07a14.31,14.31,0,0,0-3.74.3,2.71,2.71,0,0,0-1.5,1.4,7.73,7.73,0,0,0-.63,1.76l-1.14,4.77a14.82,14.82,0,0,0-.25,1.68,1.54,1.54,0,0,0,.83,1.45,10.67,10.67,0,0,0,3.51.34c1.29,0,2.26,0,2.93-.11a3.08,3.08,0,0,0,1.58-.54,5.08,5.08,0,0,0,1.53-3L460.8,194A7.91,7.91,0,0,0,461,192.09Z" transform="translate(-19.55 -18.69)"/><path class="cls-1" d="M477.45,189l-.48,2L466.19,203.3H464l11.6-13H465.39l.3-1.3Z" transform="translate(-19.55 -18.69)"/><path class="cls-1" d="M175.06,128.63q3.06,2.48,10.29,2.47l10.47-28.45q1.44-3.89-2.24-6.19-3.44-2.16-9.83-2.16l-10.48,28.44a6.2,6.2,0,0,0-.57,2.86A6,6,0,0,0,175.06,128.63Z" transform="translate(-19.55 -18.69)"/><path class="cls-1" d="M212.78,131.1a41.05,41.05,0,0,0,18.49-4.24q8.55-4.23,10.82-10.38l2.21-6c.72-2,2.43-3.64,5.11-5a18.59,18.59,0,0,1,8.68-2.08h2.42a25.9,25.9,0,0,0,4.63-.3,24.05,24.05,0,0,0,5.4-2,12.17,12.17,0,0,0,6.22-6.73H259a41,41,0,0,0-18.46,4.24q-8.56,4.23-10.83,10.38l-2.21,6c-.73,2-2.43,3.67-5.1,5a18.89,18.89,0,0,1-8.75,2h-2.52a20.11,20.11,0,0,0-10.55,2.69A12.47,12.47,0,0,0,195,131.1Z" transform="translate(-19.55 -18.69)"/><path class="cls-1" d="M271,125.6a5.92,5.92,0,0,0,2.36,3q3.06,2.48,10.28,2.47l10.47-28.45c1-2.59.21-4.65-2.23-6.19S286.25,94.3,282,94.3l-10.47,28.44A6.2,6.2,0,0,0,271,125.6Z" transform="translate(-19.55 -18.69)"/><path class="cls-1" d="M303.91,125.78q6.79,5.31,19.22,5.32a51.65,51.65,0,0,0,23.17-5.32q10.76-5.32,13.59-13c1.9-5.14.56-9.49-4-13.07s-11-5.37-19.23-5.37a50.91,50.91,0,0,0-23.16,5.37Q302.8,105,300,112.74T303.91,125.78Zm11.19-13q1.44-3.88,6.72-6.63a24.59,24.59,0,0,1,11.52-2.74q6.23,0,9.52,2.76a5.5,5.5,0,0,1,1.88,6.61c-.95,2.56-3.19,4.76-6.73,6.57A24.87,24.87,0,0,1,326.47,122c-4.12,0-7.27-.9-9.48-2.72A5.43,5.43,0,0,1,315.1,112.74Z" transform="translate(-19.55 -18.69)"/><path class="cls-1" d="M379.68,122.76l3.69-10q1.41-3.86,6.77-6.62a24.74,24.74,0,0,1,11.53-2.77q6.16,0,9.45,2.77a5.51,5.51,0,0,1,1.88,6.62l-3.69,10a6.23,6.23,0,0,0-.56,2.85,6,6,0,0,0,2.36,3c2,1.64,5.46,2.46,10.29,2.46l6.75-18.36Q431,105,424.21,99.67T405,94.3a51.12,51.12,0,0,0-23.19,5.37Q371,105,368.22,112.74l-6.77,18.36a28.78,28.78,0,0,0,11.44-2.16C376.46,127.42,378.72,125.35,379.68,122.76Z" transform="translate(-19.55 -18.69)"/><path class="cls-1" d="M206.75,142.52c-3,1.33-4.86,3.11-5.69,5.36l-3.19,8.63q-1.22,3.33-5.63,5.73a19.55,19.55,0,0,1-9.45,2.4c-3.36,0-5.93-.81-7.71-2.4a4.86,4.86,0,0,1-1.45-5.73l3.19-8.63a4.14,4.14,0,0,0-1.75-5.36c-1.87-1.24-4.55-1.87-8.06-1.87l-5.84,15.86q-2.44,6.68,3.05,11.31c3.68,3.09,8.9,4.64,15.7,4.64A40.62,40.62,0,0,0,199,167.82q8.89-4.65,11.35-11.31l5.83-15.86A22.89,22.89,0,0,0,206.75,142.52Z" transform="translate(-19.55 -18.69)"/><path class="cls-1" d="M300.36,145.29q-5.48-4.64-15.66-4.64A40.35,40.35,0,0,0,264.41,146q-5.48-5.35-16.4-5.36a40.91,40.91,0,0,0-19.12,4.64q-8.91,4.64-11.37,11.31l-5.83,15.86a23.25,23.25,0,0,0,9.47-1.83c2.92-1.33,4.8-3.12,5.64-5.39L230,156.6c.82-2.23,2.71-4.13,5.66-5.74a19.73,19.73,0,0,1,9.48-2.38c3.4,0,6,.79,7.72,2.37a4.89,4.89,0,0,1,1.39,5.75L251,165.24a4.12,4.12,0,0,0,1.74,5.34c1.88,1.25,4.56,1.88,8.06,1.88l5.85-15.86c.81-2.23,2.7-4.13,5.66-5.74a19.66,19.66,0,0,1,9.47-2.38q5.1,0,7.73,2.37a4.87,4.87,0,0,1,1.38,5.75l-3.18,8.64a5.9,5.9,0,0,0-.52,2.47,5.13,5.13,0,0,0,1.9,2.61q2.47,2.15,8.41,2.14l5.85-15.86Q305.83,149.93,300.36,145.29Z" transform="translate(-19.55 -18.69)"/><path class="cls-1" d="M333.67,152.65a9.7,9.7,0,0,0-4.65,1.14,5.47,5.47,0,0,0-2.75,2.81,2.29,2.29,0,0,0,.7,2.76,5.82,5.82,0,0,0,3.82,1.1h7.61a20.29,20.29,0,0,0,3.76-.26,18.72,18.72,0,0,0,4.48-1.77,10.61,10.61,0,0,0,5.22-5.78Z" transform="translate(-19.55 -18.69)"/><path class="cls-1" d="M336.86,164.64h-4.4q-5,0-7.69-2.36a4.78,4.78,0,0,1-1.42-5.68c.82-2.23,2.69-4.13,5.62-5.74a19.52,19.52,0,0,1,9.44-2.38h4.4a16.43,16.43,0,0,0,8.75-2.32,10.93,10.93,0,0,0,4.71-5.51h-15a40.65,40.65,0,0,0-19.07,4.64q-8.88,4.64-11.33,11.31t3,11.25q5.47,4.6,15.66,4.61h15c.82-2.23.6-4.06-.66-5.51S340.18,164.64,336.86,164.64Z" transform="translate(-19.55 -18.69)"/><path class="cls-1" d="M402.58,140.65H387.66a41,41,0,0,0-19.08,4.6q-8.9,4.6-11.34,11.26l-5.88,16a22.83,22.83,0,0,0,9.44-1.88c3-1.31,4.86-3.1,5.68-5.34l3.21-8.73c.82-2.21,2.68-4.1,5.61-5.68a19.73,19.73,0,0,1,9.48-2.35h4.4a19,19,0,0,0,3.75-.27,17.79,17.79,0,0,0,4.43-1.75A10.57,10.57,0,0,0,402.58,140.65Z" transform="translate(-19.55 -18.69)"/><path class="cls-1" d="M414.41,142.52c-1.87-1.24-4.55-1.87-8.06-1.87l-9,24.59a5.55,5.55,0,0,0-.52,2.46,5.05,5.05,0,0,0,1.9,2.62c1.65,1.43,4.45,2.14,8.42,2.14l9.05-24.58A4.14,4.14,0,0,0,414.41,142.52Z" transform="translate(-19.55 -18.69)"/><path class="cls-1" d="M451.18,140.65a40.65,40.65,0,0,0-19.07,4.64q-8.87,4.64-11.32,11.31t3,11.25q5.46,4.6,15.65,4.61h14.92c.82-2.23.6-4.06-.65-5.51s-3.64-2.31-6.95-2.31h-4.38q-5.07,0-7.73-2.36a4.78,4.78,0,0,1-1.44-5.68c.82-2.23,2.71-4.13,5.67-5.74a19.67,19.67,0,0,1,9.45-2.38h4.39a16,16,0,0,0,8.65-2.32,10.91,10.91,0,0,0,4.7-5.51Z" transform="translate(-19.55 -18.69)"/><path class="cls-1" d="M117.64,151.48c-3.73-3.55-12.2-13.14-19.38-27.1a152.5,152.5,0,0,1-6.64,16.11c7.16,15.93,16.9,29.54,25.72,40.89l.11.06c2.92-7.63,23.91-78.18,76.21-107.33C146.44,92.56,131.76,127.26,117.64,151.48Z" transform="translate(-19.55 -18.69)"/><path class="cls-2" d="M91.2,47.32c-13,30.87-11.89,57.47-4.64,80,2.07-5.54,3.92-11.13,5.72-16.72A96.39,96.39,0,0,1,91.2,47.32Z" transform="translate(-19.55 -18.69)"/><path class="cls-3" d="M19.55,205.84C53,197.4,83.11,157.92,91.62,140.49a127.39,127.39,0,0,1-5.06-13.15C78.57,148.74,52.41,192.21,19.55,205.84Z" transform="translate(-19.55 -18.69)"/><path class="cls-4" d="M105.37,103c8.7-25.95,16.54-72.11,60.32-84.34-42.36,6.61-57.5,45.59-67.46,73.91-2.09,6-4,12-6,18a113.42,113.42,0,0,0,6,13.76C100.69,117.53,102.9,110.41,105.37,103Z" transform="translate(-19.55 -18.69)"/><path class="cls-5" d="M92.28,110.62c-1.8,5.59-3.65,11.18-5.72,16.72a127.39,127.39,0,0,0,5.06,13.15,152.5,152.5,0,0,0,6.64-16.11A113.42,113.42,0,0,1,92.28,110.62Z" transform="translate(-19.55 -18.69)"/></svg>